<svg width="42" height="53" viewBox="0 0 42 53" fill="none" xmlns="http://www.w3.org/2000/svg">
<path d="M21 50L19.9599 51.0808L21 52.0818L22.0401 51.0808L21 50ZM38.5 21.1426C38.5 23.3949 37.4666 26.2447 35.7205 29.3823C33.9968 32.4798 31.6793 35.6826 29.3322 38.5945C26.9895 41.5007 24.643 44.0858 22.88 45.9459C21.9994 46.8751 21.2663 47.6214 20.7546 48.1341C20.4988 48.3904 20.2985 48.5883 20.163 48.7212C20.0952 48.7877 20.0436 48.838 20.0094 48.8713C19.9922 48.8879 19.9795 48.9003 19.9712 48.9083C19.967 48.9123 19.964 48.9152 19.9621 48.9171C19.9612 48.918 19.9605 48.9186 19.9601 48.919C19.9599 48.9191 19.9599 48.9192 19.9598 48.9193C19.9598 48.9193 19.9599 48.9192 21 50C22.0401 51.0808 22.0404 51.0806 22.0407 51.0803C22.0409 51.0801 22.0412 51.0797 22.0416 51.0794C22.0424 51.0786 22.0435 51.0776 22.0448 51.0763C22.0475 51.0737 22.0514 51.0699 22.0564 51.0651C22.0663 51.0555 22.0808 51.0415 22.0996 51.0232C22.1373 50.9866 22.1924 50.9329 22.2638 50.8629C22.4065 50.7229 22.6144 50.5175 22.8782 50.2532C23.4056 49.7246 24.1569 48.9598 25.0575 48.0096C26.857 46.1108 29.2605 43.4638 31.6678 40.4772C34.0707 37.4963 36.5032 34.1455 38.342 30.8411C40.1584 27.5768 41.5 24.1764 41.5 21.1426H38.5ZM21 50C22.0401 48.9192 22.0402 48.9193 22.0402 48.9193C22.0401 48.9192 22.0401 48.9191 22.0399 48.919C22.0395 48.9186 22.0388 48.918 22.0379 48.9171C22.036 48.9152 22.033 48.9123 22.0288 48.9083C22.0205 48.9003 22.0078 48.8879 21.9906 48.8713C21.9564 48.838 21.9048 48.7877 21.837 48.7212C21.7015 48.5883 21.5012 48.3904 21.2454 48.1341C20.7337 47.6214 20.0006 46.8751 19.12 45.9459C17.357 44.0858 15.0105 41.5007 12.6678 38.5945C10.3207 35.6826 8.00316 32.4798 6.27947 29.3823C4.53345 26.2447 3.5 23.3949 3.5 21.1426H0.5C0.5 24.1764 1.84155 27.5768 3.65803 30.8411C5.49684 34.1455 7.92931 37.4963 10.3322 40.4772C12.7395 43.4638 15.143 46.1108 16.9425 48.0096C17.8431 48.9598 18.5944 49.7246 19.1218 50.2532C19.3856 50.5175 19.5935 50.7229 19.7362 50.8629C19.8076 50.9329 19.8627 50.9866 19.9004 51.0232C19.9192 51.0415 19.9337 51.0555 19.9436 51.0651C19.9486 51.0699 19.9525 51.0737 19.9552 51.0763C19.9565 51.0776 19.9576 51.0786 19.9584 51.0794C19.9588 51.0797 19.9591 51.0801 19.9593 51.0803C19.9596 51.0806 19.9599 51.0808 21 50ZM3.5 21.1426C3.5 11.3883 11.3456 3.5 21 3.5V0.5C9.66761 0.5 0.5 9.7526 0.5 21.1426H3.5ZM21 3.5C30.6544 3.5 38.5 11.3883 38.5 21.1426H41.5C41.5 9.7526 32.3324 0.5 21 0.5V3.5ZM21.0002 23.915C18.5292 23.915 16.5627 21.9457 16.5627 19.5613H13.5627C13.5627 23.6427 16.9127 26.915 21.0002 26.915V23.915ZM25.4377 19.5613C25.4377 21.9457 23.4711 23.915 21.0002 23.915V26.915C25.0876 26.915 28.4377 23.6427 28.4377 19.5613H25.4377ZM21.0002 15.2076C23.4711 15.2076 25.4377 17.1769 25.4377 19.5613H28.4377C28.4377 15.48 25.0876 12.2076 21.0002 12.2076V15.2076ZM21.0002 12.2076C16.9127 12.2076 13.5627 15.48 13.5627 19.5613H16.5627C16.5627 17.1769 18.5292 15.2076 21.0002 15.2076V12.2076Z" fill="#7F7D7D"/>
</svg>
