<svg width="50" height="50" viewBox="0 0 50 50" fill="none" xmlns="http://www.w3.org/2000/svg">
<path d="M37.7446 50C35.1118 50 32.3392 49.3721 29.4734 48.1628C26.6775 46.9767 23.8583 45.3488 21.109 43.3721C18.383 41.3721 15.7502 39.1395 13.2572 36.6977C10.7875 34.2093 8.55079 31.5814 6.57036 28.8837C4.56664 26.093 2.95899 23.3023 1.81733 20.6047C0.605778 17.7209 0 14.9302 0 12.3023C0 10.4884 0.326188 8.76744 0.955266 7.16279C1.60764 5.51163 2.6561 3.97674 4.07735 2.65116C5.87139 0.883721 7.92172 0 10.1118 0C11.0205 0 11.9525 0.209302 12.7446 0.581395C13.6533 1 14.4222 1.62791 14.9814 2.46512L20.3868 10.0698C20.876 10.7442 21.2488 11.3953 21.5051 12.0465C21.808 12.7442 21.9711 13.4419 21.9711 14.1163C21.9711 15 21.7148 15.8605 21.2255 16.6744C20.876 17.3023 20.3402 17.9767 19.6645 18.6512L18.0802 20.3023C18.1034 20.3721 18.1267 20.4186 18.15 20.4651C18.4296 20.9535 18.9888 21.7907 20.0606 23.0465C21.2022 24.3488 22.274 25.5349 23.3458 26.6279C24.7204 27.9767 25.8621 29.0465 26.9338 29.9302C28.2619 31.0465 29.124 31.6047 29.6365 31.8605L29.5899 31.9767L31.2908 30.3023C32.0131 29.5814 32.712 29.0465 33.3877 28.6977C34.6692 27.907 36.3001 27.7674 37.931 28.4419C38.5368 28.6977 39.1892 29.0465 39.8882 29.5349L47.6235 35.0233C48.4856 35.6046 49.1146 36.3488 49.4874 37.2326C49.8369 38.1163 50 38.9302 50 39.7442C50 40.8605 49.7437 41.9767 49.2544 43.0233C48.7651 44.0698 48.1594 44.9767 47.3905 45.814C46.0624 47.2791 44.6179 48.3256 42.9404 49C41.3327 49.6512 39.5853 50 37.7446 50ZM10.1118 3.48837C8.83038 3.48837 7.64213 4.04651 6.50047 5.16279C5.4287 6.16279 4.68313 7.25581 4.21715 8.44186C3.72787 9.65116 3.49487 10.9302 3.49487 12.3023C3.49487 14.4651 4.00746 16.814 5.03262 19.2326C6.08108 21.6977 7.54893 24.2558 9.41286 26.814C11.2768 29.3721 13.397 31.8605 15.7269 34.2093C18.0569 36.5116 20.5732 38.6512 23.1594 40.5349C25.6757 42.3721 28.2619 43.8605 30.8248 44.9302C34.8089 46.6279 38.5368 47.0233 41.6123 45.7442C42.8006 45.2558 43.849 44.5116 44.8043 43.4419C45.3402 42.8605 45.7596 42.2326 46.109 41.4884C46.3886 40.907 46.5284 40.3023 46.5284 39.6977C46.5284 39.3256 46.4585 38.9535 46.2721 38.5349C46.2022 38.3953 46.0624 38.1395 45.6198 37.8372L37.8844 32.3488C37.4185 32.0233 36.9991 31.7907 36.603 31.6279C36.0904 31.4186 35.8807 31.2093 35.0885 31.6977C34.6226 31.9302 34.2032 32.2791 33.7372 32.7442L31.9665 34.4884C31.0578 35.3721 29.6598 35.5814 28.5881 35.186L27.959 34.907C27.0037 34.3953 25.8854 33.6046 24.6505 32.5581C23.5322 31.6047 22.3206 30.4884 20.8528 29.0465C19.7111 27.8837 18.5694 26.6512 17.3812 25.2791C16.2861 24 15.4939 22.907 15.0047 22L14.7251 21.3023C14.5853 20.7674 14.5387 20.4651 14.5387 20.1395C14.5387 19.3023 14.8416 18.5581 15.424 17.9767L17.1715 16.1628C17.6375 15.6977 17.987 15.2558 18.2199 14.8605C18.4063 14.5581 18.4762 14.3023 18.4762 14.0698C18.4762 13.8837 18.4063 13.6047 18.2898 13.3256C18.1267 12.9535 17.8705 12.5349 17.5443 12.093L12.1389 4.46512C11.9059 4.13953 11.6263 3.90698 11.2768 3.74419C10.904 3.58139 10.5079 3.48837 10.1118 3.48837ZM29.5899 32L29.2171 33.5814L29.8462 31.9535C29.7297 31.9302 29.6365 31.9535 29.5899 32Z" fill="#7F7D7D"/>
</svg>
