<svg width="12" height="13" viewBox="0 0 12 13" fill="none" xmlns="http://www.w3.org/2000/svg">
<path d="M6 12.5C2.69023 12.5 0 9.80977 0 6.5C0 3.19023 2.69023 0.5 6 0.5C9.30977 0.5 12 3.19023 12 6.5C12 9.80977 9.30977 12.5 6 12.5ZM6 1.33721C3.15349 1.33721 0.837209 3.65349 0.837209 6.5C0.837209 9.34651 3.15349 11.6628 6 11.6628C8.84651 11.6628 11.1628 9.34651 11.1628 6.5C11.1628 3.65349 8.84651 1.33721 6 1.33721Z" fill="#252525"/>
<path d="M5.20744 8.49814C5.09581 8.49814 4.98977 8.45349 4.91163 8.37535L3.33209 6.79581C3.17023 6.63395 3.17023 6.36605 3.33209 6.20419C3.49395 6.04233 3.76186 6.04233 3.92372 6.20419L5.20744 7.48791L8.07628 4.61907C8.23814 4.45721 8.50605 4.45721 8.66791 4.61907C8.82977 4.78093 8.82977 5.04884 8.66791 5.2107L5.50326 8.37535C5.42512 8.45349 5.31907 8.49814 5.20744 8.49814Z" fill="#252525"/>
</svg>
