<svg width="24" height="28" viewBox="0 0 24 28" fill="none" xmlns="http://www.w3.org/2000/svg">
<path d="M12 26C5.38047 26 0 20.6195 0 14C0 7.38047 5.38047 2 12 2C18.6195 2 24 7.38047 24 14C24 20.6195 18.6195 26 12 26ZM12 3.67442C6.30698 3.67442 1.67442 8.30698 1.67442 14C1.67442 19.693 6.30698 24.3256 12 24.3256C17.693 24.3256 22.3256 19.693 22.3256 14C22.3256 8.30698 17.693 3.67442 12 3.67442Z" fill="#7F7D7D"/>
<path d="M10.4149 17.9963C10.1916 17.9963 9.97954 17.907 9.82326 17.7507L6.66419 14.5916C6.34047 14.2679 6.34047 13.7321 6.66419 13.4084C6.98791 13.0847 7.52372 13.0847 7.84744 13.4084L10.4149 15.9758L16.1526 10.2381C16.4763 9.91442 17.0121 9.91442 17.3358 10.2381C17.6595 10.5619 17.6595 11.0977 17.3358 11.4214L11.0065 17.7507C10.8502 17.907 10.6381 17.9963 10.4149 17.9963Z" fill="#7F7D7D"/>
</svg>
