<svg width="146" height="10" viewBox="0 0 146 10" fill="none" xmlns="http://www.w3.org/2000/svg">
<line y1="-1" x2="146" y2="-1" transform="matrix(1 -8.35191e-08 -9.15089e-08 -1 0 0.5)" stroke="#7F7D7D" stroke-width="2"/>
<line y1="-0.5" x2="5.14215" y2="-0.5" transform="matrix(0 1 1 0 29.436 1.78662)" stroke="#7F7D7D"/>
<line y1="-0.5" x2="5.14215" y2="-0.5" transform="matrix(0 1 1 0 57.6934 1.78662)" stroke="#7F7D7D"/>
<line y1="-0.5" x2="5.14215" y2="-0.5" transform="matrix(0 1 1 0 85.9512 1.78662)" stroke="#7F7D7D"/>
<line y1="-0.5" x2="5.14215" y2="-0.5" transform="matrix(0 1 1 0 100.081 1.78662)" stroke="#7F7D7D"/>
<line y1="-0.5" x2="5.14215" y2="-0.5" transform="matrix(0 1 1 0 114.21 1.78662)" stroke="#7F7D7D"/>
<line y1="-0.5" x2="5.14215" y2="-0.5" transform="matrix(0 1 1 0 128.339 1.78662)" stroke="#7F7D7D"/>
<line y1="-0.5" x2="7.71322" y2="-0.5" transform="matrix(0 1 1 0 71.8223 1.78662)" stroke="#7F7D7D"/>
<line y1="-0.5" x2="5.14215" y2="-0.5" transform="matrix(0 1 1 0 15.3066 1.78662)" stroke="#7F7D7D"/>
<line y1="-0.5" x2="5.14215" y2="-0.5" transform="matrix(0 1 1 0 43.564 1.78662)" stroke="#7F7D7D"/>
</svg>
