<svg width="84" height="44" viewBox="0 0 84 44" fill="none" xmlns="http://www.w3.org/2000/svg">
<path d="M13.0359 4.57745C13.0359 7.10551 10.9865 9.1549 8.45846 9.1549C5.9304 9.1549 3.88101 7.10551 3.88101 4.57745C3.88101 2.0494 5.9304 0 8.45846 0C10.9865 0 13.0359 2.0494 13.0359 4.57745Z" fill="#252525"/>
<path d="M1.56225 14.7135C1.90814 12.7251 3.63404 11.2735 5.65238 11.2735H11.2645C13.2829 11.2735 15.0088 12.7251 15.3547 14.7135L16.8648 23.3952C17.1267 24.9006 16.3778 26.3152 15.1505 27.0062L16.5144 33.2993C16.7013 34.1616 16.0443 34.9763 15.1619 34.9763H12.3872L11.3605 43.3918C11.3182 43.739 11.0234 44 10.6737 44H6.24317C5.89344 44 5.59869 43.739 5.55634 43.3918L4.52973 34.9763H1.755C0.872656 34.9763 0.215661 34.1616 0.402548 33.2993L1.76643 27.0062C0.539073 26.3152 -0.209755 24.9006 0.0521044 23.3952L1.56225 14.7135Z" fill="#252525"/>
<path d="M37.7839 4.48626C37.7839 6.96395 35.7754 8.97252 33.2977 8.97252C30.82 8.97252 28.8114 6.96395 28.8114 4.48626C28.8114 2.00857 30.82 0 33.2977 0C35.7754 0 37.7839 2.00857 37.7839 4.48626Z" fill="#252525"/>
<path d="M30.6925 11.0489C28.6429 11.0489 26.9024 12.55 26.6012 14.5773L24.9551 25.6603C24.6738 27.5543 25.983 29.2732 27.8061 29.5687L28.6084 43.3507C28.6296 43.7153 28.9314 44 29.2966 44H37.2988C37.6639 44 37.9657 43.7153 37.987 43.3507L38.7893 29.5687C40.6124 29.2732 41.9216 27.5543 41.6403 25.6603L39.9941 14.5773C39.693 12.55 37.9525 11.0489 35.9029 11.0489H30.6925Z" fill="#252525"/>
<path d="M62.1547 18.017C62.1547 19.6832 60.8221 21.0339 59.1782 21.0339C57.5344 21.0339 56.2018 19.6832 56.2018 18.017C56.2018 16.3507 57.5344 15 59.1782 15C60.8221 15 62.1547 16.3507 62.1547 18.017Z" fill="#252525"/>
<path d="M54.6941 24.6976C54.919 23.387 56.0412 22.4302 57.3536 22.4302H61.0028C62.3152 22.4302 63.4375 23.387 63.6624 24.6976L64.6443 30.4196C64.8146 31.4118 64.3277 32.3441 63.5296 32.7995L64.4165 36.9473C64.538 37.5156 64.1108 38.0525 63.5371 38.0525H61.7328L61.0653 43.5992C61.0377 43.828 60.8461 44 60.6187 44H57.7378C57.5104 44 57.3187 43.828 57.2912 43.5992L56.6236 38.0525H54.8194C54.2457 38.0525 53.8185 37.5156 53.94 36.9473L54.8268 32.7995C54.0287 32.3441 53.5418 31.4118 53.7121 30.4196L54.6941 24.6976Z" fill="#252525"/>
<path d="M81.1224 17.9569C81.1224 19.5899 79.8043 20.9137 78.1782 20.9137C76.5522 20.9137 75.234 19.5899 75.234 17.9569C75.234 16.3238 76.5522 15 78.1782 15C79.8043 15 81.1224 16.3238 81.1224 17.9569Z" fill="#252525"/>
<path d="M76.4685 22.2822C75.1234 22.2822 73.9812 23.2716 73.7836 24.6078L72.7032 31.9125C72.5186 33.1608 73.3778 34.2937 74.5743 34.4885L75.1008 43.5721C75.1147 43.8123 75.3128 44 75.5524 44H80.804C81.0437 44 81.2417 43.8123 81.2557 43.5721L81.7822 34.4885C82.9787 34.2937 83.8378 33.1608 83.6532 31.9125L82.5729 24.6078C82.3753 23.2716 81.233 22.2822 79.8879 22.2822H76.4685Z" fill="#252525"/>
</svg>
